<?xml version="1.0" standalone="no"?>
<!DOCTYPE svg PUBLIC "-//W3C//DTD SVG 20010904//EN"
 "http://www.w3.org/TR/2001/REC-SVG-20010904/DTD/svg10.dtd">
<svg version="1.0" xmlns="http://www.w3.org/2000/svg"
 width="181.000000pt" height="181.000000pt" viewBox="0 0 181.000000 181.000000"
 preserveAspectRatio="xMidYMid meet">
<metadata>
Created by potrace 1.14, written by Peter Selinger 2001-2017
</metadata>
<g transform="translate(0.000000,181.000000) scale(0.100000,-0.100000)"
fill="#000000" stroke="none">
<path d="M780 1785 c0 -23 -3 -25 -50 -25 -43 0 -50 -3 -50 -20 0 -13 -7 -20
-20 -20 -15 0 -20 -7 -20 -25 0 -20 -5 -25 -25 -25 -20 0 -25 -5 -25 -25 0
-20 -5 -25 -25 -25 -23 0 -25 -4 -25 -45 0 -41 -2 -45 -25 -45 -23 0 -25 -3
-25 -50 0 -43 -3 -50 -20 -50 -19 0 -20 -7 -20 -95 0 -95 0 -95 -25 -95 l-25
0 0 -190 0 -190 45 0 45 0 0 -380 0 -380 25 0 c20 0 25 -5 25 -25 0 -20 5 -25
25 -25 20 0 25 -5 25 -25 0 -23 4 -25 45 -25 41 0 45 2 45 25 0 20 5 25 25 25
20 0 25 5 25 25 0 20 5 25 25 25 20 0 25 -5 25 -25 0 -20 5 -25 25 -25 20 0
25 -5 25 -25 0 -23 4 -25 45 -25 41 0 45 2 45 25 0 20 5 25 25 25 20 0 25 5
25 25 0 20 5 25 25 25 20 0 25 -5 25 -25 0 -20 5 -25 25 -25 20 0 25 -5 25
-25 0 -24 2 -25 70 -25 68 0 70 1 70 25 0 20 5 25 25 25 20 0 25 5 25 25 0 18
5 25 20 25 20 0 20 7 20 380 l0 380 50 0 50 0 0 190 0 190 -25 0 c-25 0 -25 0
-25 95 0 95 0 95 -25 95 -23 0 -25 3 -25 50 0 43 -3 50 -20 50 -17 0 -20 7
-20 45 0 41 -2 45 -25 45 -20 0 -25 5 -25 25 0 20 -5 25 -25 25 -20 0 -25 5
-25 25 0 20 -5 25 -25 25 -18 0 -25 5 -25 20 0 17 -7 20 -45 20 -41 0 -45 2
-45 25 l0 25 -120 0 -120 0 0 -25z m240 -45 c0 -17 7 -20 45 -20 41 0 45 -2
45 -25 0 -20 5 -25 25 -25 20 0 25 -5 25 -25 0 -20 5 -25 25 -25 23 0 25 -4
25 -45 0 -41 2 -45 25 -45 23 0 25 -3 25 -50 0 -43 3 -50 20 -50 19 0 20 -7
20 -95 0 -88 -1 -95 -20 -95 -17 0 -20 7 -20 45 0 41 -2 45 -25 45 -23 0 -25
3 -25 50 0 47 -2 50 -25 50 -20 0 -25 5 -25 25 0 20 -5 25 -25 25 -20 0 -25 5
-25 25 0 23 -4 25 -45 25 -38 0 -45 3 -45 20 0 19 -7 20 -120 20 -113 0 -120
-1 -120 -20 0 -17 -7 -20 -50 -20 -47 0 -50 -2 -50 -25 0 -18 -5 -25 -20 -25
-15 0 -20 -7 -20 -25 0 -20 -5 -25 -25 -25 -23 0 -25 -3 -25 -50 0 -47 -2 -50
-25 -50 -23 0 -25 -4 -25 -45 0 -41 -2 -45 -25 -45 -25 0 -25 0 -25 95 0 95 0
95 25 95 23 0 25 3 25 50 0 47 2 50 25 50 23 0 25 4 25 45 0 41 2 45 25 45 20
0 25 5 25 25 0 18 5 25 20 25 15 0 20 7 20 25 0 23 3 25 50 25 43 0 50 3 50
20 0 19 7 20 120 20 113 0 120 -1 120 -20z"/>
</g>
</svg>
